<?xml version="1.0" encoding="utf-8"?>
<!-- Generator: Adobe Illustrator 21.1.0, SVG Export Plug-In . SVG Version: 6.00 Build 0)  -->
<svg version="1.1" id="Layer_1" xmlns="http://www.w3.org/2000/svg" xmlns:xlink="http://www.w3.org/1999/xlink" x="0px" y="0px"
	 viewBox="0 0 42.5 50" style="enable-background:new 0 0 42.5 50;" xml:space="preserve">
<g>
	<path d="M34,39.9c2-1.1,4.2-3.3,4.3-5.6V18.8c1,0,1.9-0.6,2.5-1.4l0.6-0.9c0.5-0.8,0.8-1.7,0.6-2.6c-0.2-1.1-1-2-2-2.4L10.3,0.2
		C8.9-0.3,7.4,0,6.5,1.1C5.6,2.1,5.4,3.6,6.1,4.8l5.2,9.4c0.3,0.5,0.7,0.9,1.2,1.2l-2.3,4.2c-0.4,0.6,0,1.4,0.7,1.6
		c0,0,0.9,0.2,2.2,0.4L10.3,29c-0.4,1.3,0,2.7,1.2,3.6c0.5,0.4,1.2,0.6,1.8,0.6h0.1l-3.1,11.6c-0.4,1.2-0.2,2.4,0.5,3.4
		c1,1.3,2.7,1.7,4.2,1.1L34,39.9z M13.3,31c-0.3,0-0.6-0.2-0.8-0.4c-0.2-0.3-0.3-0.6-0.2-0.9l3-7.9c1.5,0.2,3.3,0.3,5.3,0.3
		c4,0,9.2-0.6,12.6-2.5l-2.3,7.9c-0.6,2-2.5,3.4-4.7,3.4 M14,13.7c-0.3,0-0.7-0.2-0.8-0.6L8,3.8C7.7,3.1,8,2.6,8.2,2.5
		s0.6-0.6,1.2-0.3l29.9,11.4c0.4,0.1,0.7,0.5,0.7,0.9c0,0.3-0.1,0.5-0.2,0.7l-0.7,1c-0.1,0.2-0.2,0.3-0.4,0.4
		c-0.1,0.1-0.3,0.1-0.4,0.1L14,13.7z"/>
	<path d="M21.2,24.2c0,1.3-1,2.3-2.3,2.3s-2.3-1-2.3-2.3"/>
	<path d="M6.6,35.5c0.2-0.5,0.3-1,0.3-1.5c0-0.7-0.2-1.4-0.5-1.9h-6C0.2,32.7,0,33.4,0,34.1c0,2.2,1.6,4,3.4,4h6.1l0.7-2.5L6.6,35.5
		L6.6,35.5z"/>
</g>
</svg>
