<?xml version="1.0" encoding="utf-8"?>
<!-- Generator: Adobe Illustrator 21.1.0, SVG Export Plug-In . SVG Version: 6.00 Build 0)  -->
<svg version="1.1" id="Layer_1" xmlns="http://www.w3.org/2000/svg" xmlns:xlink="http://www.w3.org/1999/xlink" x="0px" y="0px"
	 viewBox="0 0 127.4 150" style="enable-background:new 0 0 127.4 150;" xml:space="preserve">
<style type="text/css">
	.st0{fill:#0219A0;}
</style>
<g>
	<path class="st0" d="M103,120.8c6.2-3.4,12.7-10,13-17.1V57.1c3.1-0.1,5.9-1.7,7.7-4.3l1.8-2.7c1.6-2.3,2.3-5.2,1.7-7.9
		c-0.7-3.3-3-6-6.1-7.2l-90-34.3c-4-1.5-8.6-0.6-11.4,2.6c-2.7,3.2-3.2,7.6-1.1,11.2L34.3,43c0.9,1.5,2.1,2.8,3.6,3.7l-7.1,12.8
		c-1.1,1.9,0,4.3,2.2,4.8c0.1,0,2.7,0.6,6.8,1.2L31.1,88c-1.2,3.9,0.1,8.2,3.7,10.8c1.6,1.2,3.6,1.7,5.5,1.7h0.2l-9.3,35.1
		c-1.1,3.5-0.6,7.3,1.5,10.2c2.9,4,8.2,5.3,12.6,3.2L103,120.8z M40.3,94c-1,0-1.9-0.5-2.5-1.3s-0.8-1.8-0.5-2.6l9-23.8
		c4.6,0.5,10.1,0.9,16,0.9c12.1,0,27.9-1.7,38.3-7.6l-7.1,24C91.6,89.8,85.9,94,79.4,94 M42.5,41.5c-1-0.1-2-0.7-2.5-1.7L24.3,11.4
		c-1.1-1.9,0-3.4,0.4-3.8s1.7-1.7,3.6-0.9l90.5,34.4c1.2,0.4,2,1.5,2.1,2.8c0.1,0.8-0.2,1.6-0.6,2.2l-2,3c-0.3,0.5-0.7,0.8-1.2,1.1
		c-0.4,0.2-0.8,0.2-1.2,0.2L42.5,41.5z"/>
	<path class="st0" d="M64.1,73.3c0,3.9-3.1,7-7,7s-7-3.1-7-7"/>
	<path class="st0" d="M20.1,107.7c0.5-1.4,0.8-2.9,0.8-4.4c0-2.1-0.5-4.2-1.4-5.9H1.4c-0.9,1.7-1.4,3.8-1.4,5.9
		c0,6.6,4.7,12,10.4,12h18.4l2.2-7.5L20.1,107.7L20.1,107.7z"/>
</g>
</svg>
