<?xml version="1.0" encoding="utf-8"?>
<!-- Generator: Adobe Illustrator 21.1.0, SVG Export Plug-In . SVG Version: 6.00 Build 0)  -->
<svg version="1.1" id="Layer_1" xmlns="http://www.w3.org/2000/svg" xmlns:xlink="http://www.w3.org/1999/xlink" x="0px" y="0px"
	 viewBox="0 0 457 150" style="enable-background:new 0 0 457 150;" xml:space="preserve">
<g>
	<path d="M103,120.8c6.2-3.4,12.7-10,13-17.1V57.1c3.1-0.1,5.9-1.7,7.7-4.3l1.8-2.7c1.6-2.3,2.3-5.2,1.7-7.9c-0.7-3.3-3-6-6.1-7.2
		L31.1,0.7c-4-1.5-8.6-0.6-11.4,2.6c-2.7,3.2-3.2,7.6-1.1,11.2L34.3,43c0.9,1.5,2.1,2.8,3.6,3.7l-7.1,12.8c-1.1,1.9,0,4.3,2.2,4.8
		c0.1,0,2.7,0.6,6.8,1.2L31.1,88c-1.2,3.9,0.1,8.2,3.7,10.8c1.6,1.2,3.6,1.7,5.5,1.7h0.2l-9.3,35.1c-1.1,3.5-0.6,7.3,1.5,10.2
		c2.9,4,8.2,5.3,12.6,3.2L103,120.8z M40.3,94c-1,0-1.9-0.5-2.5-1.3c-0.6-0.8-0.8-1.8-0.5-2.6l9-23.8c4.6,0.5,10.1,0.9,16,0.9
		c12.1,0,27.9-1.7,38.3-7.6l-7.1,24C91.6,89.8,85.9,94,79.4,94 M42.5,41.5c-1-0.1-2-0.7-2.5-1.7L24.3,11.4c-1.1-1.9,0-3.4,0.4-3.8
		c0.4-0.4,1.7-1.7,3.6-0.9l90.5,34.4c1.2,0.4,2,1.5,2.1,2.8c0.1,0.8-0.2,1.6-0.6,2.2l-2,3c-0.3,0.5-0.7,0.8-1.2,1.1
		c-0.4,0.2-0.8,0.2-1.2,0.2L42.5,41.5z"/>
	<path d="M64.1,73.3c0,3.9-3.1,7-7,7c-3.9,0-7-3.1-7-7"/>
	<path d="M20.1,107.7c0.5-1.4,0.8-2.9,0.8-4.4c0-2.1-0.5-4.2-1.4-5.9H1.4c-0.9,1.7-1.4,3.8-1.4,5.9c0,6.6,4.7,12,10.4,12h18.4
		l2.2-7.5H20.1z"/>
	<path d="M453.4,80.1c-1.2-2.6-2.9-4.7-5-6.3c-2.1-1.6-4.3-2.9-6.7-3.8c-2.4-1-4.8-1.8-7.3-2.5c-2.4-0.7-4.6-1.4-6.7-2
		c-2-0.7-3.6-1.5-4.8-2.6c-1.2-1-1.7-2.4-1.7-4.1c0-2.1,0.9-3.7,2.8-4.8c1.9-1.2,4.6-1.8,8.1-1.8c6.9,0,13.4,2.3,19.5,6.9l0.5,0.4
		V42.2l-0.2-0.1c-6.2-3.2-13.2-4.9-20.8-4.9c-8.5,0-15.2,2-20.2,6.1c-4.9,4-7.5,9.6-7.5,16.6c0,3.6,0.6,6.6,1.9,9.1
		c1.2,2.4,2.9,4.5,5,6.1c2.1,1.6,4.3,2.9,6.7,3.9c2.4,1,4.8,1.9,7.3,2.7c2.4,0.8,4.7,1.6,6.7,2.4c2,0.8,3.6,1.7,4.8,2.9
		c1.2,1.1,1.7,2.5,1.7,4.2c0,2.1-0.9,3.8-2.9,4.9c-2,1.2-4.8,1.8-8.5,1.8c-3.6,0-7.4-0.6-11.2-1.8c-3.8-1.2-7.4-2.9-10.7-5.1
		l-0.5-0.4v17.3l0.2,0.1c3.2,1.5,6.9,2.7,10.8,3.6s8,1.3,12.1,1.3c8.9,0,16-2,20.9-6c5-4,7.5-9.8,7.5-17.1
		C455.3,85.9,454.6,82.6,453.4,80.1z"/>
	<polygon points="163.2,111.6 163.2,38.4 208.8,38.4 208.8,53.8 181.5,53.8 181.5,70 203.9,70 203.9,84.5 181.5,84.5 181.5,111.6 	
		"/>
	<rect x="224.6" y="38.4" width="18.3" height="73.3"/>
	<path d="M298.8,111.6c-0.4-2.8-1.5-8.5-2.1-10.6h-17.9c-0.7,2.4-1.6,7.5-2.2,10.6h-18.3c3.7-25.1,10.5-52.2,17.8-73.3h24.4
		c7.2,19.4,14.5,47.3,18.1,73.3H298.8z M295.3,86.9c-1.5-8.7-5-25.2-7.1-33h-0.7c-2,7.9-5.8,24.2-7.4,33H295.3z"/>
	<path d="M370.6,111.6c-0.4-2.8-1.5-8.5-2.1-10.6h-17.9c-0.7,2.4-1.6,7.5-2.2,10.6H330c3.7-25.1,10.5-52.2,17.8-73.3h24.4
		c7.2,19.4,14.5,47.3,18.1,73.3H370.6z M367,86.9c-1.5-8.7-5-25.2-7.1-33h-0.7c-2,7.9-5.8,24.2-7.4,33H367z"/>
</g>
</svg>
