<?xml version="1.0" encoding="utf-8"?>
<!-- Generator: Adobe Illustrator 21.1.0, SVG Export Plug-In . SVG Version: 6.00 Build 0)  -->
<svg version="1.1" id="Layer_1" xmlns="http://www.w3.org/2000/svg" xmlns:xlink="http://www.w3.org/1999/xlink" x="0px" y="0px"
	 viewBox="0 0 152 50" style="enable-background:new 0 0 152 50;" xml:space="preserve">
<g>
	<path d="M34.3,40.3c2.1-1.1,4.2-3.3,4.3-5.7V19c1,0,2-0.6,2.6-1.4l0.6-0.9c0.5-0.8,0.8-1.7,0.6-2.6c-0.2-1.1-1-2-2-2.4l-30-11.4
		C9-0.3,7.5,0,6.6,1.1C5.7,2.2,5.5,3.6,6.2,4.8l5.3,9.5c0.3,0.5,0.7,0.9,1.2,1.2l-2.4,4.3c-0.4,0.6,0,1.4,0.7,1.6
		c0,0,0.9,0.2,2.3,0.4l-2.8,7.5c-0.4,1.3,0,2.7,1.2,3.6c0.5,0.4,1.2,0.6,1.8,0.6h0.1l-3.1,11.7c-0.4,1.2-0.2,2.4,0.5,3.4
		c1,1.3,2.7,1.8,4.2,1.1L34.3,40.3z M13.4,31.3c-0.3,0-0.6-0.2-0.8-0.4c-0.2-0.3-0.3-0.6-0.2-0.9l3-7.9c1.5,0.2,3.4,0.3,5.3,0.3
		c4,0,9.3-0.6,12.8-2.5l-2.4,8c-0.6,2.1-2.5,3.5-4.7,3.5 M14.2,13.8c-0.3,0-0.7-0.2-0.8-0.6L8.1,3.8c-0.4-0.6,0-1.1,0.1-1.3
		C8.3,2.4,8.8,2,9.4,2.2l30.2,11.5c0.4,0.1,0.7,0.5,0.7,0.9c0,0.3-0.1,0.5-0.2,0.7l-0.7,1c-0.1,0.2-0.2,0.3-0.4,0.4
		c-0.1,0.1-0.3,0.1-0.4,0.1L14.2,13.8z"/>
	<path d="M21.4,24.4c0,1.3-1,2.3-2.3,2.3c-1.3,0-2.3-1-2.3-2.3"/>
	<path d="M6.7,35.9c0.2-0.5,0.2-1,0.2-1.5c0-0.7-0.2-1.4-0.5-2h-6C0.2,33,0,33.7,0,34.4c0,2.2,1.6,4,3.5,4h6.1l0.7-2.5H6.7z"/>
	<path d="M151.1,26.7c-0.4-0.9-1-1.6-1.7-2.1c-0.7-0.5-1.4-1-2.2-1.3c-0.8-0.3-1.6-0.6-2.4-0.8c-0.8-0.2-1.5-0.5-2.2-0.7
		c-0.7-0.2-1.2-0.5-1.6-0.9c-0.4-0.3-0.6-0.8-0.6-1.4c0-0.7,0.3-1.2,0.9-1.6c0.6-0.4,1.5-0.6,2.7-0.6c2.3,0,4.5,0.8,6.5,2.3l0.2,0.1
		v-5.8l-0.1,0c-2.1-1.1-4.4-1.6-6.9-1.6c-2.8,0-5.1,0.7-6.7,2c-1.6,1.3-2.5,3.2-2.5,5.5c0,1.2,0.2,2.2,0.6,3c0.4,0.8,1,1.5,1.7,2
		c0.7,0.5,1.4,1,2.2,1.3c0.8,0.3,1.6,0.6,2.4,0.9c0.8,0.3,1.6,0.5,2.2,0.8c0.7,0.3,1.2,0.6,1.6,1c0.4,0.4,0.6,0.8,0.6,1.4
		c0,0.7-0.3,1.3-1,1.6c-0.7,0.4-1.6,0.6-2.8,0.6c-1.2,0-2.5-0.2-3.7-0.6c-1.3-0.4-2.5-1-3.6-1.7l-0.2-0.1v5.8l0.1,0
		c1.1,0.5,2.3,0.9,3.6,1.2s2.7,0.4,4,0.4c3,0,5.3-0.7,7-2c1.7-1.3,2.5-3.3,2.5-5.7C151.8,28.6,151.5,27.5,151.1,26.7z"/>
	<polygon points="54.4,37.2 54.4,12.8 69.6,12.8 69.6,17.9 60.5,17.9 60.5,23.3 68,23.3 68,28.2 60.5,28.2 60.5,37.2 	"/>
	<rect x="74.9" y="12.8" width="6.1" height="24.4"/>
	<path d="M99.6,37.2c-0.1-0.9-0.5-2.8-0.7-3.5h-6c-0.2,0.8-0.5,2.5-0.7,3.5h-6.1c1.2-8.4,3.5-17.4,5.9-24.4h8.1
		c2.4,6.5,4.8,15.8,6,24.4H99.6z M98.4,29c-0.5-2.9-1.7-8.4-2.4-11h-0.2c-0.7,2.6-1.9,8.1-2.5,11H98.4z"/>
	<path d="M123.5,37.2c-0.1-0.9-0.5-2.8-0.7-3.5h-6c-0.2,0.8-0.5,2.5-0.7,3.5H110c1.2-8.4,3.5-17.4,5.9-24.4h8.1
		c2.4,6.5,4.8,15.8,6,24.4H123.5z M122.3,29c-0.5-2.9-1.7-8.4-2.4-11h-0.2c-0.7,2.6-1.9,8.1-2.5,11H122.3z"/>
</g>
</svg>
